<?xml version="1.0" encoding="UTF-8"?>
<svg viewBox="0 0 52 50" version="1.1" xmlns="http://www.w3.org/2000/svg" xmlns:xlink="http://www.w3.org/1999/xlink">
    <title>1inch-round</title>
    <g id="Page-1" stroke="none" stroke-width="1" fill="none" fill-rule="evenodd">
        <g id="1inch-round" transform="translate(0.264650, 0.952972)" fill-rule="nonzero">
            <polygon id="Path" fill="#FFFFFF" points="12.1539496 26.5087277 13.5028496 16.3415277 1.7839296 8.19932768 12.4911496 11.8274277 15.0204496 7.94622768 24.2522496 2.20867768 44.6128496 13.4305277 45.6666496 30.5587277 36.6034496 43.1727277 29.4372496 44.2696277 33.1468496 37.4774277 33.1468496 30.9383277 30.4489496 25.8337277 27.7089496 24.0196277 23.4934496 28.3649277 23.4934496 32.9633277 20.2054496 36.0430277 16.0321496 36.5493277 14.1773496 37.6040277 11.1422496 36.6337277 9.8775496 32.0774277 12.1539496 28.8712277"></polygon>
            <path d="M30.8704496,8.11482768 C28.6362496,7.65082768 26.1912496,7.77732768 26.1912496,7.77732768 C26.1912496,7.77732768 25.3903496,11.4898277 20.4161496,12.4601277 C20.4582496,12.4601277 26.9922496,14.6961277 30.8704496,8.11482768 Z" id="Path" fill="#94A6C3"></path>
            <path d="M32.8937496,41.7805277 C35.5916496,39.6711277 37.6150496,36.7602277 38.5424496,33.4696277 C38.5846496,33.3430277 38.9640496,33.1321277 39.2169496,32.9633277 C39.6384496,32.7102277 40.0600496,32.4993277 40.1443496,32.1618277 C40.3129496,31.1914277 40.3972496,30.1789277 40.3972496,29.1664277 C40.3972496,28.7868277 40.0178496,28.4071277 39.6384496,28.0274277 C39.3434496,27.7743277 39.0483496,27.4789277 39.0483496,27.2680277 C38.6267496,23.4289277 36.8563496,19.8430277 34.0319496,17.2274277 L33.7368496,17.5227277 C36.4769496,20.0961277 38.2474496,23.5977277 38.6267496,27.3102277 C38.6689496,27.6477277 39.0061496,27.9852277 39.3434496,28.3227277 C39.6384496,28.5758277 39.9757496,28.9555277 39.9757496,29.1243277 C39.9757496,30.0946277 39.8914496,31.0649277 39.7228496,32.0352277 C39.6806496,32.2039277 39.3012496,32.3727277 39.0061496,32.5414277 C38.5846496,32.7524277 38.2052496,32.9633277 38.1209496,33.3008277 C37.1092496,36.8868277 34.7907496,40.0086277 31.7134496,42.0336277 C32.2614496,40.8524277 33.9898496,37.0133277 34.9172496,35.0727277 L34.7485496,28.8289277 L29.3949496,23.6399277 L26.3598496,24.0618277 L23.0296496,29.4618277 C23.0296496,29.4618277 24.5893496,31.4446277 22.3973496,33.7649277 C20.2474496,36.0430277 18.5612496,36.5493277 18.5612496,36.5493277 L17.0015496,35.7055277 C17.4652496,35.1149277 18.3926496,34.2289277 19.1092496,33.6383277 C20.3317496,32.6258277 21.5542496,32.5414277 21.5542496,31.4446277 C21.5964496,29.1664277 19.1514496,29.7993277 19.1514496,29.7993277 L18.2662496,30.6430277 L17.8868496,33.7649277 L16.0320496,36.0852277 L15.8212496,36.0430277 L12.7861496,35.3680277 C12.7861496,35.3680277 14.6409496,34.3977277 14.9360496,33.3008277 C15.2310496,32.2461277 14.3458496,28.7446277 14.3036496,28.5336277 C14.3458496,28.5758277 15.1889496,29.2930277 15.5683496,30.4743277 C16.2427496,28.6180277 17.1280496,26.8461277 17.3809496,26.6774277 C17.6338496,26.5086277 21.0483496,24.6946277 21.0483496,24.6946277 L19.9102496,27.6899277 L20.7533496,27.2258277 L22.7767496,22.2477277 C22.7767496,22.2477277 24.7579496,21.2774277 26.2333496,21.2774277 C28.8891496,21.2352277 32.8094496,17.9868277 31.0389496,12.1649277 C31.5448496,12.3758277 40.3129496,16.7633277 41.8305496,25.3696277 C42.9686496,31.9930277 39.2169496,38.1946277 32.8937496,41.7805277 Z" id="Path" fill="#94A6C3"></path>
            <path d="M22.8612496,9.04302768 C23.8307496,7.90402768 23.4513496,6.21648768 23.4513496,6.21648768 L20.6270496,10.3930277 C20.5848496,10.3930277 21.6387496,10.4352277 22.8612496,9.04302768 Z" id="Path" fill="#0A192B"></path>
            <path d="M13.3764496,31.8666277 L13.7136496,30.1791277 C13.7136496,30.1791277 12.3225496,32.6259277 12.1961496,32.9634277 C12.0696496,33.3431277 12.2804496,34.0181277 12.8284496,33.9759277 C13.3764496,33.9337277 14.0509496,33.1322277 14.0509496,32.5416277 C14.0509496,31.7822277 13.3764496,31.8666277 13.3764496,31.8666277 Z" id="Path" fill="#0A192B"></path>
            <path d="M38.4161496,5.03528768 C38.4161496,5.03528768 40.5238496,5.11966768 42.7159496,5.37278768 C37.7838496,1.49153768 33.1047496,0.352477679 29.3108496,0.352477679 C24.0836496,0.352477679 20.5426496,2.50403768 20.3319496,2.63060768 L21.9759496,0.0149776787 C21.9759496,0.0149776787 15.3998496,-0.617832321 13.0813496,6.34309768 C12.4911496,4.86653768 11.9431496,2.71497768 11.9431496,2.71497768 C11.9431496,2.71497768 8.5286796,5.71028768 10.1305496,10.6884277 C6.2101896,9.25402768 0.6036496,7.27122768 0.3928796,7.22902768 C0.0977996,7.18682768 0.0134896,7.31342768 0.0134896,7.31342768 C0.0134896,7.31342768 -0.0708204,7.44002768 0.1821096,7.65092768 C0.6457996,8.03062768 9.4982496,14.5696277 11.4373496,15.8353277 C11.0157496,17.3540277 11.0157496,18.0712277 11.4373496,18.7884277 C12.0274496,19.7587277 12.0696496,20.2649277 11.9853496,20.9821277 C11.9010496,21.6993277 11.1422496,27.9009277 10.9736496,28.6603277 C10.8050496,29.4196277 9.0345496,32.1196277 9.1188496,32.9212277 C9.2031496,33.7228277 10.2991496,37.1399277 11.2687496,37.5196277 C11.9853496,37.7728277 13.7558496,38.3212277 14.9361496,38.3212277 C15.3576496,38.3212277 15.7370496,38.2368277 15.9057496,38.0681277 C16.6223496,37.4353277 16.8330496,37.3087277 17.3389496,37.3087277 C17.3811496,37.3087277 17.4232496,37.3087277 17.4654496,37.3087277 C17.6761496,37.3087277 17.9291496,37.3509277 18.2241496,37.3509277 C18.8986496,37.3509277 19.7839496,37.2243277 20.4162496,36.6337277 C21.3436496,35.7056277 22.9454496,34.4399277 23.4513496,33.8493277 C24.0836496,33.0478277 24.4208496,31.9509277 24.2522496,30.8540277 C24.1258496,29.8415277 24.6738496,28.9556277 25.3061496,28.0696277 C26.1070496,27.0149277 27.5824496,25.1165277 27.5824496,25.1165277 C30.4911496,27.3103277 32.3037496,30.6431277 32.3037496,34.3556277 C32.3037496,40.9368277 26.5707496,46.2524277 19.4888496,46.2524277 C18.3928496,46.2524277 17.3389496,46.1259277 16.2850496,45.8728277 C19.5309496,47.0118277 22.2710496,47.3915277 24.5052496,47.3915277 C29.2686496,47.3915277 31.7979496,45.6618277 31.7979496,45.6618277 C31.7979496,45.6618277 30.9126496,46.8009277 29.4794496,48.1087277 C29.5215496,48.1087277 29.5215496,48.1087277 29.5215496,48.1087277 C37.4044496,47.0118277 41.2405496,40.5149277 41.2405496,40.5149277 C41.2405496,40.5149277 40.9454496,42.6243277 40.5660496,44.0587277 C51.0624496,36.1696277 49.2920496,26.2978277 49.2498496,25.9603277 C49.3341496,26.0868277 50.3880496,27.3524277 50.9360496,28.0274277 C52.6221496,10.6462277 38.4161496,5.03528768 38.4161496,5.03528768 Z M22.2710496,32.7946277 C22.1024496,33.0056277 21.3857496,33.6384277 20.8799496,34.1024277 C20.3740496,34.5665277 19.8260496,35.0306277 19.4045496,35.4524277 C19.2359496,35.6212277 18.8986496,35.7056277 18.3928496,35.7056277 C18.2241496,35.7056277 18.0555496,35.7056277 17.9291496,35.7056277 C17.8448496,35.7056277 17.7604496,35.7056277 17.6761496,35.7056277 C17.5918496,35.7056277 17.5497496,35.7056277 17.5075496,35.7056277 C17.3811496,35.7056277 17.2546496,35.7056277 17.1281496,35.7056277 C17.7604496,34.8618277 19.6152496,32.9212277 20.2476496,32.4993277 C21.0063496,31.9931277 21.3857496,31.4868277 20.9220496,30.6009277 C20.4583496,29.7149277 19.2359496,29.9259277 19.2359496,29.9259277 C19.2359496,29.9259277 19.9525496,29.6306277 20.5848496,29.6306277 C19.7839496,29.4196277 18.7722496,29.6306277 18.3085496,30.0946277 C17.8026496,30.5587277 17.8869496,32.2040277 17.6761496,33.2587277 C17.4654496,34.3556277 16.7487496,34.9040277 15.6527496,35.9165277 C15.0626496,36.4649277 14.6410496,36.6337277 14.3038496,36.6337277 C13.5872496,36.5071277 12.7441496,36.2962277 12.1539496,36.0853277 C11.7324496,35.5368277 11.1000496,33.7228277 10.9314496,32.9634277 C11.0579496,32.5415277 11.5637496,31.6556277 11.8167496,31.1493277 C12.3225496,30.1790277 12.6176496,29.6306277 12.7019496,29.1243277 C12.8705496,28.4071277 13.4185496,23.9774277 13.6293496,22.1212277 C14.1773496,22.8384277 14.9361496,24.0196277 14.7675496,24.7790277 C15.9900496,23.0493277 15.1047496,21.3618277 14.6832496,20.6868277 C14.3038496,20.0118277 13.7979496,18.6618277 14.2195496,17.2274277 C14.6410496,15.7931277 16.1586496,11.8274277 16.1586496,11.8274277 C16.1586496,11.8274277 16.6644496,12.7134277 17.3811496,12.5446277 C18.0977496,12.3759277 23.8728496,3.68528768 23.8728496,3.68528768 C23.8728496,3.68528768 25.4326496,7.10242768 23.7885496,9.59152768 C22.1024496,12.0806277 20.4583496,12.5446277 20.4583496,12.5446277 C20.4583496,12.5446277 22.7768496,12.9665277 24.9267496,11.4056277 C25.8119496,13.4728277 26.6550496,15.6243277 26.6972496,15.9196277 C26.5707496,16.2149277 24.8845496,20.2649277 24.7159496,20.5181277 C24.6316496,20.6024277 24.0415496,20.7712277 23.6199496,20.8556277 C22.9033496,21.0665277 22.4817496,21.1931277 22.3131496,21.3196277 C22.0180496,21.5728277 20.6691496,25.2853277 20.0368496,27.0993277 C19.2780496,27.3103277 18.5192496,27.7321277 17.9712496,28.5759277 C18.2663496,28.3649277 19.1937496,28.2384277 19.8682496,28.1540277 C20.4583496,28.1118277 22.2710496,29.0821277 22.7347496,30.8962277 C22.7347496,30.9384277 22.7347496,30.9384277 22.7347496,30.9806277 C22.8190496,31.6556277 22.6082496,32.2884277 22.2710496,32.7946277 Z M18.3085496,33.3009277 C18.6878496,32.7524277 18.6457496,31.8243277 18.6878496,31.5290277 C18.7300496,31.2337277 18.8143496,30.6853277 19.1515496,30.6009277 C19.4888496,30.5165277 20.2897496,30.6431277 20.2897496,31.2337277 C20.2897496,31.7821277 19.6996496,31.9087277 19.2780496,32.2884277 C18.9829496,32.5837277 18.3928496,33.2165277 18.3085496,33.3009277 Z M35.1281496,25.2431277 C35.5496496,23.0915277 35.5918496,21.2353277 35.4653496,19.7165277 C37.1093496,21.9103277 38.1210496,24.5681277 38.4161496,27.3103277 C38.4583496,27.6478277 38.7955496,27.9853277 39.1327496,28.3228277 C39.4278496,28.5759277 39.7651496,28.9134277 39.7651496,29.1243277 C39.7651496,30.0946277 39.6807496,31.0649277 39.5121496,32.0353277 C39.4700496,32.1618277 39.0906496,32.3728277 38.7955496,32.5415277 C38.3740496,32.7524277 37.9946496,32.9634277 37.9103496,33.3009277 C36.9829496,36.5493277 35.0016496,39.4181277 32.3459496,41.4431277 C36.2662496,37.3509277 38.1632496,30.6009277 35.1281496,25.2431277 Z M32.4723496,41.8228277 C35.2124496,39.7134277 37.3201496,36.7603277 38.2475496,33.4274277 C38.2896496,33.3009277 38.6690496,33.0899277 38.9220496,32.9212277 C39.3435496,32.7103277 39.7651496,32.4571277 39.8494496,32.1196277 C40.0180496,31.1493277 40.1023496,30.1368277 40.1023496,29.1243277 C40.1023496,28.7446277 39.7229496,28.3649277 39.3435496,27.9853277 C39.1327496,27.7321277 38.7955496,27.4368277 38.7955496,27.2259277 C38.4583496,24.1462277 37.2358496,21.2353277 35.3388496,18.8306277 C34.4958496,13.7681277 31.1234496,12.2071277 31.0391496,12.1649277 C31.1234496,12.2915277 33.3154496,15.4556277 31.7979496,19.1681277 C30.2382496,22.9228277 26.2335496,22.3321277 25.8963496,22.3743277 C25.5590496,22.3743277 24.2522496,24.0618277 22.6082496,27.1837277 C22.3974496,27.0993277 21.5122496,26.8884277 20.5005496,27.0571277 C21.2593496,24.9478277 22.3974496,21.9524277 22.6082496,21.6993277 C22.6925496,21.6149277 23.3248496,21.4462277 23.7464496,21.3196277 C24.5473496,21.1087277 24.9267496,20.9821277 25.0532496,20.8134277 C25.1375496,20.6868277 25.5590496,19.7165277 25.9806496,18.7040277 C26.3599496,18.7040277 27.3295496,18.6196277 27.4138496,18.5774277 C27.4981496,18.4931277 28.2990496,16.4259277 28.2990496,16.1728277 C28.2990496,15.9618277 26.6550496,11.8696277 26.0227496,10.3087277 C26.3178496,9.97122768 26.6129496,9.54932768 26.9080496,9.08532768 C35.5496496,10.0134277 42.2943496,17.3540277 42.2943496,26.2556277 C42.2943496,33.0899277 38.2896496,39.0384277 32.4723496,41.8228277 Z" id="Shape" fill="#0A192B"></path>
            <path d="M21.2593496,19.0415277 C22.0602496,18.1134277 21.6387496,16.3837277 20.1633496,16.0884277 C20.5426496,15.2024277 21.0907496,13.4306277 21.0907496,13.4306277 C21.0907496,13.4306277 16.7909496,20.1806277 16.4115496,20.3071277 C16.0321496,20.4337277 15.6527496,18.9571277 15.6527496,18.9571277 C14.8518496,22.0368277 17.0017496,22.4587277 17.2546496,21.4884277 C18.4349496,21.1931277 20.4583496,19.9274277 21.2593496,19.0415277 Z" id="Path" fill="#0A192B"></path>
            <path d="M17.5920496,20.6869277 L19.7840496,16.9323277 C19.7840496,16.9323277 21.0486496,17.5651277 20.4163496,18.5776277 C19.6154496,19.7588277 17.5920496,20.6869277 17.5920496,20.6869277 Z" id="Path" fill="#FFD923"></path>
            <path d="M44.6970496,38.0681277 C44.0647496,38.9119277 43.3480496,39.7978277 42.5049496,40.6416277 C47.9429496,30.1791277 42.7579496,20.6025277 42.5471496,20.2228277 C42.9265496,20.6025277 43.3059496,21.0244277 43.6431496,21.4040277 C47.8164496,26.0447277 48.3223496,33.0056277 44.6970496,38.0681277 Z" id="Path" fill="#D82122"></path>
            <path d="M49.7555496,24.6103277 C47.8586496,19.5056277 45.1607496,15.1603277 39.2169496,11.2368277 C33.4839496,7.44002768 27.3294496,7.73532768 26.9921496,7.77752768 C26.9500496,7.77752768 26.9078496,7.77752768 26.9078496,7.77752768 C27.1186496,7.69312768 27.3294496,7.65092768 27.5401496,7.60872768 C28.8469496,7.18682768 30.5331496,6.84937768 32.2193496,6.63843768 C36.6876496,6.00562768 41.1982496,7.52432768 44.2754496,10.7728277 C44.3176496,10.8150277 44.3176496,10.8150277 44.3597496,10.8572277 C47.8586496,14.5697277 49.6712496,19.2103277 49.7555496,24.6103277 Z" id="Path" fill="#D82122"></path>
            <path d="M37.8680496,3.72760768 C31.5870496,2.54635768 27.5401496,3.13697768 24.6315496,4.23385768 C24.5472496,3.89635768 24.2521496,3.22135768 23.9992496,2.67291768 C23.1139496,3.72760768 22.1865496,4.99322768 21.5964496,5.79479768 C19.9945496,6.89166768 19.3200496,7.94632768 19.3200496,7.94632768 C20.2474496,4.78229768 22.9453496,2.41979768 26.2333496,1.82916768 C27.1607496,1.66041768 28.1724496,1.57604768 29.2685496,1.57604768 C32.1771496,1.61822768 35.0858496,2.33541768 37.8680496,3.72760768 Z" id="Path" fill="#D82122"></path>
            <path d="M14.6409496,11.8276277 C9.7088496,11.6588277 11.3528496,5.92135768 11.4372496,5.58385768 C11.4372496,5.62604768 11.7744496,10.0979277 14.6409496,11.8276277 Z" id="Path" fill="#D82122"></path>
            <path d="M19.4886496,1.49160768 C15.6947496,3.76973768 16.4535496,9.21192768 16.4535496,9.21192768 C12.8282496,3.68535768 19.1936496,1.61816768 19.4886496,1.49160768 Z" id="Path" fill="#D82122"></path>
            <path d="M13.2498496,13.3462277 C13.5027496,13.5572277 13.7556496,13.9368277 13.4606496,14.4853277 C13.2919496,14.7806277 13.0390496,14.7384277 12.6596496,14.5697277 C12.1538496,14.3165277 9.1186496,12.5447277 6.3786596,10.7306277 C9.4980496,11.8275277 12.6596496,13.0087277 13.1655496,13.2618277 C13.1655496,13.2618277 13.2076496,13.3040277 13.2498496,13.3462277 Z" id="Path" fill="#FFFFFF"></path>
        </g>
    </g>
</svg>