<?xml version="1.0" encoding="UTF-8"?>
<svg xmlns="http://www.w3.org/2000/svg" version="1.1" viewBox="0 0 127 138">
  <defs>
    <style>
      .cls-1 {
        fill: #fff;
      }
    </style>
  </defs>
  <!-- Generator: Adobe Illustrator 28.7.2, SVG Export Plug-In . SVG Version: 1.2.0 Build 154)  -->
  <g>
    <g id="Camada_1">
      <g id="Camada_1-2" data-name="Camada_1">
        <g id="Camada_1-2">
          <g id="Camada_1-2-2" data-name="Camada_1-2">
            <path class="cls-1" d="M122.8,0c-.5,0-1.1.1-1.5.3l-37,15.6h-41.4S6.6.3,4.5.3.4,2,.5,4.2c.1,2.2,8.1,52.9,8.1,52.9L.4,85.4s-.2.8-.2,1.6c0,1.2.9,2.8,2.2,3.5l27.1,13.8c10.9,6.6,15.3,14.3,23.7,23.9l7.3,8.5c.8.8,1.8,1.3,3,1.3s2.4-.5,3.1-1.4l7.3-8.4c8.4-9.6,12.8-17.3,23.7-23.9l27.1-13.7c1.3-.8,2.2-2.2,2.2-3.8s-.2-1.4-.2-1.4l-8.4-28.2s6.1-37.6,8.4-51.3l.2-1.6c0-2.4-1.8-4.3-4.1-4.3ZM114.4,15l-4.8,29.2-15.7-20.5s20.5-8.7,20.5-8.7ZM44.3,26.7h38.4l19.2,25.2H25.1s19.2-25.2,19.2-25.2ZM63.5,93.4h0l-35.6-30.6h71.4l-35.6,30.7h-.2ZM33.1,23.6h0l-15.7,20.5-4.8-29.2s20.5,8.7,20.5,8.7ZM12.5,82.5h0l4.4-13.6,23.9,21.4,6.6,5.9s-34.9-13.7-34.9-13.7ZM63.5,121l-13.5-16.3,13.5,1.9h0l13.5-1.9-13.5,16.3ZM79.6,96.2l6.6-5.9,23.9-21.4,4.4,13.6s-34.9,13.7-34.9,13.7Z"/>
          </g>
        </g>
      </g>
    </g>
  </g>
</svg>